<svg xmlns="http://www.w3.org/2000/svg" viewBox="0 0 600 800" width="600" height="800" role="img" aria-label="Muchos paquetes de un negocio listos para enviar">
<defs>
<linearGradient id="bg" x1="0" y1="0" x2="0" y2="1"><stop offset="0" stop-color="#ececec"/><stop offset="1" stop-color="#d2d2d2"/></linearGradient>
<linearGradient id="floor" x1="0" y1="0" x2="0" y2="1"><stop offset="0" stop-color="#d8d8d8"/><stop offset="1" stop-color="#c2c2c2"/></linearGradient>
</defs>
<rect width="600" height="800" fill="url(#bg)"/>
<rect x="0" y="585" width="600" height="215" fill="url(#floor)"/>
<ellipse cx="108" cy="606" rx="94" ry="9" fill="#000000" opacity="0.10"/><path d="M199,432 l20,-20 l0,168 l-20,20 z" fill="#7c7c7c"/><path d="M18,432 l20,-20 l181,0 l-20,20 z" fill="#b8b8b8"/><rect x="18" y="432" width="181" height="168" fill="#969696"/><line x1="108" y1="432" x2="128" y2="412" stroke="#6e6e6e" stroke-width="1.4"/><line x1="108" y1="432" x2="108" y2="600" stroke="#808080" stroke-width="1.4" opacity="0.7"/><rect x="18" y="482" width="181" height="20" fill="#b4b4b4" opacity="0.55"/><line x1="18" y1="482" x2="199" y2="482" stroke="#787878" stroke-width="1" opacity="0.5"/><rect x="113" y="530" width="70" height="54" fill="#f0f0f0" stroke="#bcbcbc" stroke-width="1"/><line x1="121" y1="542" x2="173" y2="542" stroke="#b3b3b3" stroke-width="2"/><line x1="121" y1="551" x2="173" y2="551" stroke="#b3b3b3" stroke-width="2"/><line x1="121" y1="560" x2="173" y2="560" stroke="#b3b3b3" stroke-width="2"/><rect x="121" y="568" width="1" height="11" fill="#7d7d7d"/><rect x="124" y="568" width="2" height="11" fill="#7d7d7d"/><rect x="128" y="568" width="3" height="11" fill="#7d7d7d"/><rect x="133" y="568" width="1" height="11" fill="#7d7d7d"/><rect x="136" y="568" width="1" height="11" fill="#7d7d7d"/><rect x="139" y="568" width="3" height="11" fill="#7d7d7d"/><rect x="144" y="568" width="1" height="11" fill="#7d7d7d"/><rect x="147" y="568" width="2" height="11" fill="#7d7d7d"/><rect x="151" y="568" width="3" height="11" fill="#7d7d7d"/><rect x="156" y="568" width="1" height="11" fill="#7d7d7d"/><rect x="159" y="568" width="3" height="11" fill="#7d7d7d"/><rect x="164" y="568" width="1" height="11" fill="#7d7d7d"/><rect x="167" y="568" width="1" height="11" fill="#7d7d7d"/><rect x="170" y="568" width="1" height="11" fill="#7d7d7d"/>
<ellipse cx="304" cy="606" rx="99" ry="9" fill="#000000" opacity="0.10"/><path d="M399,432 l20,-20 l0,168 l-20,20 z" fill="#8e8e8e"/><path d="M208,432 l20,-20 l191,0 l-20,20 z" fill="#cacaca"/><rect x="208" y="432" width="191" height="168" fill="#a8a8a8"/><line x1="304" y1="432" x2="324" y2="412" stroke="#808080" stroke-width="1.4"/><line x1="304" y1="432" x2="304" y2="600" stroke="#929292" stroke-width="1.4" opacity="0.7"/><rect x="208" y="482" width="191" height="20" fill="#c6c6c6" opacity="0.55"/><line x1="208" y1="482" x2="399" y2="482" stroke="#8a8a8a" stroke-width="1" opacity="0.5"/><rect x="313" y="530" width="70" height="54" fill="#f0f0f0" stroke="#bcbcbc" stroke-width="1"/><line x1="321" y1="542" x2="373" y2="542" stroke="#b3b3b3" stroke-width="2"/><line x1="321" y1="551" x2="373" y2="551" stroke="#b3b3b3" stroke-width="2"/><line x1="321" y1="560" x2="373" y2="560" stroke="#b3b3b3" stroke-width="2"/><rect x="321" y="568" width="1" height="11" fill="#7d7d7d"/><rect x="324" y="568" width="1" height="11" fill="#7d7d7d"/><rect x="327" y="568" width="1" height="11" fill="#7d7d7d"/><rect x="330" y="568" width="3" height="11" fill="#7d7d7d"/><rect x="335" y="568" width="2" height="11" fill="#7d7d7d"/><rect x="339" y="568" width="1" height="11" fill="#7d7d7d"/><rect x="342" y="568" width="3" height="11" fill="#7d7d7d"/><rect x="347" y="568" width="1" height="11" fill="#7d7d7d"/><rect x="350" y="568" width="1" height="11" fill="#7d7d7d"/><rect x="353" y="568" width="3" height="11" fill="#7d7d7d"/><rect x="358" y="568" width="3" height="11" fill="#7d7d7d"/><rect x="363" y="568" width="3" height="11" fill="#7d7d7d"/><rect x="368" y="568" width="1" height="11" fill="#7d7d7d"/><rect x="371" y="568" width="3" height="11" fill="#7d7d7d"/>
<ellipse cx="494" cy="606" rx="89" ry="9" fill="#000000" opacity="0.10"/><path d="M580,432 l20,-20 l0,168 l-20,20 z" fill="#787878"/><path d="M408,432 l20,-20 l172,0 l-20,20 z" fill="#aeaeae"/><rect x="408" y="432" width="172" height="168" fill="#8c8c8c"/><line x1="494" y1="432" x2="514" y2="412" stroke="#6a6a6a" stroke-width="1.4"/><line x1="494" y1="432" x2="494" y2="600" stroke="#767676" stroke-width="1.4" opacity="0.7"/><rect x="408" y="482" width="172" height="20" fill="#aaaaaa" opacity="0.55"/><line x1="408" y1="482" x2="580" y2="482" stroke="#6e6e6e" stroke-width="1" opacity="0.5"/>
<ellipse cx="82" cy="436" rx="67" ry="9" fill="#000000" opacity="0.10"/><path d="M146,280 l20,-20 l0,150 l-20,20 z" fill="#9c9c9c"/><path d="M18,280 l20,-20 l128,0 l-20,20 z" fill="#d8d8d8"/><rect x="18" y="280" width="128" height="150" fill="#b6b6b6"/><line x1="82" y1="280" x2="102" y2="260" stroke="#8e8e8e" stroke-width="1.4"/><line x1="82" y1="280" x2="82" y2="430" stroke="#a0a0a0" stroke-width="1.4" opacity="0.7"/><rect x="18" y="325" width="128" height="18" fill="#d4d4d4" opacity="0.55"/><line x1="18" y1="325" x2="146" y2="325" stroke="#989898" stroke-width="1" opacity="0.5"/><rect x="76" y="363" width="54" height="51" fill="#f0f0f0" stroke="#bcbcbc" stroke-width="1"/><line x1="84" y1="375" x2="120" y2="375" stroke="#b3b3b3" stroke-width="2"/><line x1="84" y1="384" x2="120" y2="384" stroke="#b3b3b3" stroke-width="2"/><line x1="84" y1="393" x2="120" y2="393" stroke="#b3b3b3" stroke-width="2"/><rect x="84" y="398" width="1" height="11" fill="#7d7d7d"/><rect x="87" y="398" width="1" height="11" fill="#7d7d7d"/><rect x="90" y="398" width="3" height="11" fill="#7d7d7d"/><rect x="95" y="398" width="1" height="11" fill="#7d7d7d"/><rect x="98" y="398" width="2" height="11" fill="#7d7d7d"/><rect x="102" y="398" width="2" height="11" fill="#7d7d7d"/><rect x="106" y="398" width="1" height="11" fill="#7d7d7d"/><rect x="109" y="398" width="3" height="11" fill="#7d7d7d"/><rect x="114" y="398" width="1" height="11" fill="#7d7d7d"/><rect x="117" y="398" width="3" height="11" fill="#7d7d7d"/><rect x="122" y="398" width="2" height="11" fill="#7d7d7d"/><rect x="126" y="398" width="3" height="11" fill="#7d7d7d"/><rect x="131" y="398" width="3" height="11" fill="#7d7d7d"/><rect x="136" y="398" width="1" height="11" fill="#7d7d7d"/>
<ellipse cx="230" cy="436" rx="80" ry="9" fill="#000000" opacity="0.10"/><path d="M307,280 l20,-20 l0,150 l-20,20 z" fill="#848484"/><path d="M154,280 l20,-20 l153,0 l-20,20 z" fill="#c0c0c0"/><rect x="154" y="280" width="153" height="150" fill="#9e9e9e"/><line x1="230" y1="280" x2="250" y2="260" stroke="#767676" stroke-width="1.4"/><line x1="230" y1="280" x2="230" y2="430" stroke="#888888" stroke-width="1.4" opacity="0.7"/><rect x="154" y="325" width="153" height="18" fill="#bcbcbc" opacity="0.55"/><line x1="154" y1="325" x2="307" y2="325" stroke="#808080" stroke-width="1" opacity="0.5"/><rect x="227" y="363" width="64" height="51" fill="#f0f0f0" stroke="#bcbcbc" stroke-width="1"/><line x1="235" y1="375" x2="281" y2="375" stroke="#b3b3b3" stroke-width="2"/><line x1="235" y1="384" x2="281" y2="384" stroke="#b3b3b3" stroke-width="2"/><line x1="235" y1="393" x2="281" y2="393" stroke="#b3b3b3" stroke-width="2"/><rect x="235" y="398" width="3" height="11" fill="#7d7d7d"/><rect x="240" y="398" width="3" height="11" fill="#7d7d7d"/><rect x="245" y="398" width="1" height="11" fill="#7d7d7d"/><rect x="248" y="398" width="2" height="11" fill="#7d7d7d"/><rect x="252" y="398" width="1" height="11" fill="#7d7d7d"/><rect x="255" y="398" width="3" height="11" fill="#7d7d7d"/><rect x="260" y="398" width="3" height="11" fill="#7d7d7d"/><rect x="265" y="398" width="1" height="11" fill="#7d7d7d"/><rect x="268" y="398" width="3" height="11" fill="#7d7d7d"/><rect x="273" y="398" width="1" height="11" fill="#7d7d7d"/><rect x="276" y="398" width="3" height="11" fill="#7d7d7d"/><rect x="281" y="398" width="1" height="11" fill="#7d7d7d"/><rect x="284" y="398" width="2" height="11" fill="#7d7d7d"/><rect x="288" y="398" width="3" height="11" fill="#7d7d7d"/>
<ellipse cx="383" cy="436" rx="71" ry="9" fill="#000000" opacity="0.10"/><path d="M451,280 l20,-20 l0,150 l-20,20 z" fill="#787878"/><path d="M315,280 l20,-20 l136,0 l-20,20 z" fill="#a2a2a2"/><rect x="315" y="280" width="136" height="150" fill="#808080"/><line x1="383" y1="280" x2="403" y2="260" stroke="#6a6a6a" stroke-width="1.4"/><line x1="383" y1="280" x2="383" y2="430" stroke="#6a6a6a" stroke-width="1.4" opacity="0.7"/><rect x="315" y="325" width="136" height="18" fill="#9e9e9e" opacity="0.55"/><line x1="315" y1="325" x2="451" y2="325" stroke="#626262" stroke-width="1" opacity="0.5"/>
<ellipse cx="518" cy="436" rx="62" ry="9" fill="#000000" opacity="0.10"/><path d="M578,280 l20,-20 l0,150 l-20,20 z" fill="#929292"/><path d="M459,280 l20,-20 l119,0 l-20,20 z" fill="#cecece"/><rect x="459" y="280" width="119" height="150" fill="#acacac"/><line x1="518" y1="280" x2="538" y2="260" stroke="#848484" stroke-width="1.4"/><line x1="518" y1="280" x2="518" y2="430" stroke="#969696" stroke-width="1.4" opacity="0.7"/><rect x="459" y="325" width="119" height="18" fill="#cacaca" opacity="0.55"/><line x1="459" y1="325" x2="578" y2="325" stroke="#8e8e8e" stroke-width="1" opacity="0.5"/>
<ellipse cx="111" cy="296" rx="97" ry="9" fill="#000000" opacity="0.10"/><path d="M204,160 l20,-20 l0,130 l-20,20 z" fill="#787878"/><path d="M18,160 l20,-20 l186,0 l-20,20 z" fill="#b4b4b4"/><rect x="18" y="160" width="186" height="130" fill="#929292"/><line x1="111" y1="160" x2="131" y2="140" stroke="#6a6a6a" stroke-width="1.4"/><line x1="111" y1="160" x2="111" y2="290" stroke="#7c7c7c" stroke-width="1.4" opacity="0.7"/><rect x="18" y="199" width="186" height="16" fill="#b0b0b0" opacity="0.55"/><line x1="18" y1="199" x2="204" y2="199" stroke="#747474" stroke-width="1" opacity="0.5"/>
<ellipse cx="294" cy="296" rx="82" ry="9" fill="#000000" opacity="0.10"/><path d="M372,160 l20,-20 l0,130 l-20,20 z" fill="#7c7c7c"/><path d="M215,160 l20,-20 l157,0 l-20,20 z" fill="#b8b8b8"/><rect x="215" y="160" width="157" height="130" fill="#969696"/><line x1="294" y1="160" x2="314" y2="140" stroke="#6e6e6e" stroke-width="1.4"/><line x1="294" y1="160" x2="294" y2="290" stroke="#808080" stroke-width="1.4" opacity="0.7"/><rect x="215" y="199" width="157" height="16" fill="#b4b4b4" opacity="0.55"/><line x1="215" y1="199" x2="372" y2="199" stroke="#787878" stroke-width="1" opacity="0.5"/>
<ellipse cx="482" cy="296" rx="102" ry="9" fill="#000000" opacity="0.10"/><path d="M580,160 l20,-20 l0,130 l-20,20 z" fill="#8e8e8e"/><path d="M383,160 l20,-20 l197,0 l-20,20 z" fill="#cacaca"/><rect x="383" y="160" width="197" height="130" fill="#a8a8a8"/><line x1="482" y1="160" x2="502" y2="140" stroke="#808080" stroke-width="1.4"/><line x1="482" y1="160" x2="482" y2="290" stroke="#929292" stroke-width="1.4" opacity="0.7"/><rect x="383" y="199" width="197" height="16" fill="#c6c6c6" opacity="0.55"/><line x1="383" y1="199" x2="580" y2="199" stroke="#8a8a8a" stroke-width="1" opacity="0.5"/><rect x="494" y="230" width="70" height="44" fill="#f0f0f0" stroke="#bcbcbc" stroke-width="1"/><line x1="502" y1="242" x2="554" y2="242" stroke="#b3b3b3" stroke-width="2"/><line x1="502" y1="251" x2="554" y2="251" stroke="#b3b3b3" stroke-width="2"/><line x1="502" y1="260" x2="554" y2="260" stroke="#b3b3b3" stroke-width="2"/><rect x="502" y="258" width="1" height="11" fill="#7d7d7d"/><rect x="505" y="258" width="1" height="11" fill="#7d7d7d"/><rect x="508" y="258" width="3" height="11" fill="#7d7d7d"/><rect x="513" y="258" width="1" height="11" fill="#7d7d7d"/><rect x="516" y="258" width="1" height="11" fill="#7d7d7d"/><rect x="519" y="258" width="3" height="11" fill="#7d7d7d"/><rect x="524" y="258" width="2" height="11" fill="#7d7d7d"/><rect x="528" y="258" width="3" height="11" fill="#7d7d7d"/><rect x="533" y="258" width="2" height="11" fill="#7d7d7d"/><rect x="537" y="258" width="2" height="11" fill="#7d7d7d"/><rect x="541" y="258" width="3" height="11" fill="#7d7d7d"/><rect x="546" y="258" width="2" height="11" fill="#7d7d7d"/><rect x="550" y="258" width="2" height="11" fill="#7d7d7d"/><rect x="554" y="258" width="3" height="11" fill="#7d7d7d"/>
<ellipse cx="86" cy="181" rx="71" ry="9" fill="#000000" opacity="0.10"/><path d="M154,63 l20,-20 l0,112 l-20,20 z" fill="#787878"/><path d="M18,63 l20,-20 l136,0 l-20,20 z" fill="#aeaeae"/><rect x="18" y="63" width="136" height="112" fill="#8c8c8c"/><line x1="86" y1="63" x2="106" y2="43" stroke="#6a6a6a" stroke-width="1.4"/><line x1="86" y1="63" x2="86" y2="175" stroke="#767676" stroke-width="1.4" opacity="0.7"/><rect x="18" y="97" width="136" height="16" fill="#aaaaaa" opacity="0.55"/><line x1="18" y1="97" x2="154" y2="97" stroke="#6e6e6e" stroke-width="1" opacity="0.5"/>
<ellipse cx="222" cy="181" rx="61" ry="9" fill="#000000" opacity="0.10"/><path d="M281,63 l20,-20 l0,112 l-20,20 z" fill="#9c9c9c"/><path d="M163,63 l20,-20 l118,0 l-20,20 z" fill="#d8d8d8"/><rect x="163" y="63" width="118" height="112" fill="#b6b6b6"/><line x1="222" y1="63" x2="242" y2="43" stroke="#8e8e8e" stroke-width="1.4"/><line x1="222" y1="63" x2="222" y2="175" stroke="#a0a0a0" stroke-width="1.4" opacity="0.7"/><rect x="163" y="97" width="118" height="16" fill="#d4d4d4" opacity="0.55"/><line x1="163" y1="97" x2="281" y2="97" stroke="#989898" stroke-width="1" opacity="0.5"/>
<ellipse cx="362" cy="181" rx="75" ry="9" fill="#000000" opacity="0.10"/><path d="M435,63 l20,-20 l0,112 l-20,20 z" fill="#848484"/><path d="M290,63 l20,-20 l145,0 l-20,20 z" fill="#c0c0c0"/><rect x="290" y="63" width="145" height="112" fill="#9e9e9e"/><line x1="362" y1="63" x2="382" y2="43" stroke="#767676" stroke-width="1.4"/><line x1="362" y1="63" x2="362" y2="175" stroke="#888888" stroke-width="1.4" opacity="0.7"/><rect x="290" y="97" width="145" height="16" fill="#bcbcbc" opacity="0.55"/><line x1="290" y1="97" x2="435" y2="97" stroke="#808080" stroke-width="1" opacity="0.5"/>
<ellipse cx="512" cy="181" rx="71" ry="9" fill="#000000" opacity="0.10"/><path d="M580,63 l20,-20 l0,112 l-20,20 z" fill="#787878"/><path d="M444,63 l20,-20 l136,0 l-20,20 z" fill="#a2a2a2"/><rect x="444" y="63" width="136" height="112" fill="#808080"/><line x1="512" y1="63" x2="532" y2="43" stroke="#6a6a6a" stroke-width="1.4"/><line x1="512" y1="63" x2="512" y2="175" stroke="#6a6a6a" stroke-width="1.4" opacity="0.7"/><rect x="444" y="97" width="136" height="16" fill="#9e9e9e" opacity="0.55"/><line x1="444" y1="97" x2="580" y2="97" stroke="#626262" stroke-width="1" opacity="0.5"/>
<ellipse cx="135" cy="792" rx="78" ry="9" fill="#000000" opacity="0.10"/><path d="M210,690 l20,-20 l0,96 l-20,20 z" fill="#959595"/><path d="M60,690 l20,-20 l150,0 l-20,20 z" fill="#d1d1d1"/><rect x="60" y="690" width="150" height="96" fill="#afafaf"/><line x1="135" y1="690" x2="155" y2="670" stroke="#878787" stroke-width="1.4"/><line x1="135" y1="690" x2="135" y2="786" stroke="#999999" stroke-width="1.4" opacity="0.7"/><rect x="60" y="719" width="150" height="16" fill="#cdcdcd" opacity="0.55"/><line x1="60" y1="719" x2="210" y2="719" stroke="#919191" stroke-width="1" opacity="0.5"/>
<ellipse cx="445" cy="792" rx="88" ry="9" fill="#000000" opacity="0.10"/><path d="M530,700 l20,-20 l0,86 l-20,20 z" fill="#7c7c7c"/><path d="M360,700 l20,-20 l170,0 l-20,20 z" fill="#b8b8b8"/><rect x="360" y="700" width="170" height="86" fill="#969696"/><line x1="445" y1="700" x2="465" y2="680" stroke="#6e6e6e" stroke-width="1.4"/><line x1="445" y1="700" x2="445" y2="786" stroke="#808080" stroke-width="1.4" opacity="0.7"/><rect x="360" y="726" width="170" height="16" fill="#b4b4b4" opacity="0.55"/><line x1="360" y1="726" x2="530" y2="726" stroke="#787878" stroke-width="1" opacity="0.5"/>
<rect width="600" height="800" fill="url(#vig)" opacity="0.0"/>
</svg>